<?xml version="1.0" encoding="UTF-8" standalone="no"?>
<!-- Created with Inkscape (http://www.inkscape.org/) -->

<svg
   width="210mm"
   height="297mm"
   viewBox="0 0 210 297"
   version="1.1"
   id="svg1045"
   inkscape:version="1.1.2 (b8e25be833, 2022-02-05)"
   sodipodi:docname="track_2.svg"
   xmlns:inkscape="http://www.inkscape.org/namespaces/inkscape"
   xmlns:sodipodi="http://sodipodi.sourceforge.net/DTD/sodipodi-0.dtd"
   xmlns="http://www.w3.org/2000/svg"
   xmlns:svg="http://www.w3.org/2000/svg">
  <sodipodi:namedview
     id="namedview1047"
     pagecolor="#ffffff"
     bordercolor="#666666"
     borderopacity="1.0"
     inkscape:pageshadow="2"
     inkscape:pageopacity="0.0"
     inkscape:pagecheckerboard="0"
     inkscape:document-units="mm"
     showgrid="false"
     inkscape:zoom="2.8436027"
     inkscape:cx="-4.3958321"
     inkscape:cy="-51.870819"
     inkscape:window-width="1920"
     inkscape:window-height="991"
     inkscape:window-x="-9"
     inkscape:window-y="-9"
     inkscape:window-maximized="1"
     inkscape:current-layer="layer2" />
  <defs
     id="defs1042">
    <inkscape:path-effect
       effect="bspline"
       id="path-effect6322"
       is_visible="true"
       lpeversion="1"
       weight="33.333333"
       steps="2"
       helper_size="0"
       apply_no_weight="true"
       apply_with_weight="true"
       only_selected="false" />
    <inkscape:path-effect
       effect="bspline"
       id="path-effect1324"
       is_visible="true"
       lpeversion="1"
       weight="33.333333"
       steps="2"
       helper_size="0"
       apply_no_weight="true"
       apply_with_weight="true"
       only_selected="false" />
  </defs>
  <g
     inkscape:label="Warstwa 1"
     inkscape:groupmode="layer"
     id="layer1"
     style="display:inline">
    <path
       style="fill:none;stroke:#000000;stroke-width:1;stroke-linecap:butt;stroke-linejoin:miter;stroke-miterlimit:4;stroke-dasharray:none;stroke-opacity:1"
       d="m -23.099126,-19.401721 c -2.620916,-5.02436 -3.48932,-13.243175 2.248693,-17.414928 5.738013,-4.171753 18.0817487,-4.295811 25.3547033,-1.380236 7.2729547,2.915574 9.4750207,8.870456 6.6681337,12.437024 -2.8068865,3.566567 -10.62251854,4.745114 -12.3128049,8.792817 -1.6902863,4.047703 2.7446836,10.9637745 8.0482524,10.7465232 C 12.21142,-6.4377722 18.38317,-13.788045 23.36124,-11.43071 c 4.978071,2.3573357 8.761759,14.4217228 3.814876,18.0349438 -4.946883,3.6132212 -13.635729,0.5396168 -16.32352,4.5395902 -2.6877903,3.999973 3.499012,10.797573 3.902191,16.814335 0.40318,6.016762 -8.5289715,7.350382 -13.95677732,4.621179 C -4.6297961,29.850134 -6.5526904,23.057976 -11.422105,21.196921 c -4.869416,-1.861055 -12.684878,1.209305 -16.437853,-1.116719 -3.752975,-2.326024 -3.442838,-10.048449 0.496278,-14.1581587 3.939116,-4.1097096 11.506635,-4.6059415 14.716603,-6.77686883 3.2099693,-2.17092737 2.062436,-6.01671687 -0.697833,-8.85470207 -2.760269,-2.8379854 -7.133299,-4.6678334 -9.754216,-9.6921934 z"
       id="path1322"
       inkscape:original-d="m -24.851651,-16.207381 c -0.868157,-8.218725 -1.736561,-16.43754 -2.605264,-24.656956 12.344498,-0.123798 24.6882334,-0.247855 37.0319536,-0.37218 2.2023334,5.955152 4.4043994,11.910034 6.6062054,17.864663 -7.8156813,1.17886 -15.63131429,2.3574 -23.4473704,3.53571 C -2.83062,-12.919384 1.60435,-6.0033126 6.0393244,0.9129138 12.211706,-6.4375323 18.383455,-13.787806 24.555304,-21.138777 28.339476,-9.0734261 32.123165,2.9909608 35.906806,15.055778 22.229179,10.217607 13.540333,7.1440023 -5.1260863,0.54074733 8.1648185,15.143785 14.351621,21.941385 24.090077,32.641307 15.158011,33.975219 6.2258599,35.308839 -2.7069142,36.642248 -4.6296206,29.850084 -6.5525149,23.057926 -8.4757114,16.26537 c -7.8156836,3.070816 -15.6311456,6.141176 -23.4473686,9.211466 0.310422,-7.722647 0.620559,-15.445072 0.930451,-23.1682347 7.568083,-0.4959869 15.135602,-0.9922187 22.7030066,-1.48872503 -1.147315,-3.84567997 -2.2948466,-7.69146997 -3.4426686,-11.53760027 -4.372943,-1.829658 -8.745973,-3.659506 -13.11936,-5.489657 z"
       inkscape:path-effect="#path-effect1324"
       sodipodi:nodetypes="ccccccccssccccccc" />
  </g>
  <g
     inkscape:groupmode="layer"
     id="layer2"
     inkscape:label="Warstwa 2"
     style="display:inline">
    <path
       style="color:#000000;fill:#000000;-inkscape-stroke:none"
       d="m -8.8886719,-43.662109 c -5.1454621,0.20532 -10.2130541,1.246751 -14.0214841,4.015625 -3.826538,2.782037 -5.481245,7.053785 -5.695313,11.029297 -0.213236,3.960088 0.805883,7.77353 2.402344,10.833984 3.194049,6.123068 8.399169,8.5103237 10.347656,10.5136718 0.987498,1.0153006 1.563935,2.2527446 1.634766,2.7402343 0.0529,0.3640648 0.04744,0.4665552 0.06055,0.4335938 0.0131,-0.032961 -0.06549,0.083601 -0.447266,0.3417968 -0.276723,0.1871499 -1.141345,0.54686 -2.251953,0.9316407 -1.110608,0.3847806 -2.496366,0.826002 -3.957031,1.3027344 -2.930237,0.95637193 -6.385622,2.21449788 -9.074219,5.0195312 -2.688923,2.8053739 -3.973091,6.502199 -4.103516,10.041016 -0.130532,3.541764 0.92261,7.42795 4.291016,9.515625 3.34229,2.071489 6.893056,1.488431 9.925781,1.24414 3.04828,-0.245543 5.913327,-0.290358 7.107422,0.166016 1.21946,0.466069 2.633793,1.991531 4.3867189,4.24414 1.756592,2.257322 3.9085164,5.185317 7.5097656,6.996094 3.593351,1.806804 7.8224767,2.21575 11.6171875,1.228516 1.901166,-0.494609 3.768237,-1.385045 5.222656,-2.945313 1.472476,-1.579638 2.339944,-3.87407 2.179688,-6.265625 -0.274281,-4.093166 -2.203626,-7.542339 -3.384766,-10.30664 -0.591603,-1.384567 -1.012323,-2.615051 -1.132812,-3.363281 -0.06355,-0.394608 -0.06761,-0.624164 -0.05274,-0.744141 0.01488,-0.119977 0.02467,-0.132386 0.08008,-0.214844 0.04954,-0.07372 0.07071,-0.104831 0.197266,-0.177734 0.126552,-0.0729 0.364596,-0.169394 0.771484,-0.275391 0.782239,-0.203778 2.11245,-0.328058 3.646485,-0.417969 3.057347,-0.179192 7.242726,-0.144222 10.86914,-2.7929684 2.159178,-1.5770705 3.221682,-3.9874683 3.583985,-6.2949218 0.36068,-2.29712107 0.123991,-4.6392647 -0.441407,-6.8789063 -1.125044,-4.4565153 -3.312922,-8.8576985 -7.523437,-10.8515625 -2.141201,-1.013954 -4.434208,-0.929757 -6.320313,-0.429688 -1.870208,0.495856 -3.487832,1.343232 -4.980468,2.171875 -1.483945,0.82382 -2.90348,1.605256 -4.1015627,2.181641 -1.1980828,0.576385 -2.2072959,0.9313413 -2.6914063,0.951172 -1.0547589,0.043206 -2.5986452,-0.81428 -3.6464844,-2.296875 -0.5167239,-0.731116 -0.8277658,-1.544071 -0.9765625,-2.230469 -0.1487967,-0.686397 -0.089551,-1.287606 -0.054687,-1.371094 0.02636,-0.06312 0.4524323,-0.568506 1.1621094,-1.082031 0.7096771,-0.513524 1.7026886,-1.11469 2.9023437,-1.708984 2.4052043,-1.191507 5.5285573,-2.340009 7.7695313,-5.1875 2.272753,-2.887871 2.431078,-6.86739 0.849609,-10.146484 -1.571751,-3.258946 -4.678591,-5.986811 -8.9648434,-7.705079 -4.2822352,-1.716658 -9.5452813,-2.420347 -14.6953125,-2.214843 z m 0.039063,1 c 5.0312513,-0.200764 10.1790025,0.49846 14.2851563,2.144531 4.1020754,1.644435 6.9911261,4.218104 8.4335941,7.208984 1.432748,2.970731 1.276947,6.542501 -0.732422,9.095703 -2.041054,2.593464 -4.9506771,3.682087 -7.4296878,4.910157 -1.2424523,0.615495 -2.2746754,1.237029 -3.0429687,1.792968 -0.7682933,0.55594 -1.2729355,0.966789 -1.4980469,1.50586 -0.21664146,0.518788 -0.17697217,1.163342 -0.00195,1.970703 0.1750191,0.807361 0.5311871,1.736169 1.1386719,2.595703 1.2005781,1.6987061 2.9230167,2.7834279 4.5019531,2.71875 0.8327906,-0.034114 1.8478274,-0.4531864 3.0859375,-1.0488281 1.23811,-0.5956419 2.666726,-1.3842359 4.152344,-2.2089849 1.476927,-0.819922 3.019276,-1.622122 4.753906,-2.082031 1.718732,-0.455693 3.761536,-0.518945 5.632812,0.367188 3.814378,1.806276 5.89659,5.8863877 6.984375,10.1953122 0.54102,2.1430783 0.755969,4.34876927 0.421875,6.4765626 -0.33247,2.1174606 -1.292842,4.2601407 -3.185546,5.6425781 -3.325973,2.4293031 -7.224759,2.4191011 -10.337891,2.6015621 -1.551206,0.09092 -2.898295,0.203431 -3.841797,0.449219 -0.455981,0.118786 -0.76882,0.234775 -1.015625,0.376953 -0.246805,0.142178 -0.421462,0.328755 -0.527344,0.486328 -0.09999,0.148817 -0.210425,0.378474 -0.24414,0.650391 -0.03372,0.271917 -0.01474,0.584086 0.05664,1.027344 0.149358,0.9275 0.596344,2.177565 1.203125,3.597656 1.215628,2.845013 3.050938,6.162586 3.306641,9.978516 0.141133,2.106173 -0.639173,4.147953 -1.914062,5.515625 -1.292946,1.387043 -2.96939,2.198943 -4.742188,2.660156 C 7.0405327,36.891204 3.040801,36.504495 -0.32421875,34.8125 -3.6814491,33.12442 -5.7248524,30.371293 -7.4941406,28.097656 c -1.7729545,-2.278347 -3.1980954,-3.944453 -4.8203124,-4.564453 -1.647538,-0.629676 -4.46863,-0.476315 -7.544922,-0.228516 -3.091848,0.249053 -6.315741,0.760148 -9.316406,-1.099609 -2.974682,-1.843651 -3.940709,-5.309198 -3.81836,-8.628906 0.122458,-3.322656 1.33134,-6.7818887 3.826172,-9.3847658 2.495186,-2.6032458 5.757087,-3.81421387 8.660157,-4.7617187 1.455988,-0.475206 2.844049,-0.9149472 3.974609,-1.3066406 1.13056,-0.3916934 1.974467,-0.7039734 2.484375,-1.0488282 0.404835,-0.2737932 0.676018,-0.4427581 0.818359,-0.8007812 0.142342,-0.3580231 0.04558,-0.6201312 -0.002,-0.9472656 -0.130028,-0.8949087 -0.786234,-2.1414742 -1.904297,-3.2910156 -2.262454,-2.3261553 -7.142449,-4.4568383 -10.179687,-10.2792973 -1.519235,-2.912409 -2.491212,-6.564183 -2.289063,-10.318359 0.20132,-3.738753 1.741446,-7.698979 5.285157,-10.275391 3.56184,-2.589593 8.434882,-3.623273 13.4707026,-3.824218 z m 0.2011719,4.996093 c -4.4066515,0.175841 -8.5206715,1.263068 -10.7324215,2.871094 -2.179232,1.584383 -3.089965,3.854381 -3.232422,6.5 -0.143709,2.668853 0.622268,5.61188 1.730469,7.736328 1.107273,2.122669 2.631621,3.550887 4.269531,4.865235 1.637909,1.314347 3.390864,2.525549 5.058593,4.240234 1.6596538,1.7063806 2.9300944,3.712925 3.2714849,6.0625 0.3316774,2.2827264 -0.7128304,5.0856886 -2.9628909,6.6074219 -2.318412,1.5679608 -5.013889,2.0871707 -7.708984,2.9667968 -2.685255,0.8764147 -5.139016,1.9408275 -6.603516,3.46875 -1.463784,1.5271769 -2.359531,3.9427083 -2.439453,6.1113283 -0.03987,1.08186 0.128878,1.993032 0.396485,2.699219 0.267606,0.706186 0.608273,1.213087 1.058593,1.492187 0.260721,0.161591 0.551381,0.230405 0.933594,0.298828 0.382213,0.06842 0.846757,0.116465 1.384766,0.146485 1.076016,0.06004 2.444126,0.04242 3.964843,-0.08008 3.025464,-0.243705 6.426958,-0.721561 9.730469,0.541016 3.2929887,1.258557 5.1993512,3.877178 6.9804689,6.166016 1.7775886,2.284303 3.38482922,4.269543 5.4707031,5.318359 2.1000334,1.055937 5.2001929,1.358149 7.4101563,0.783203 1.0978167,-0.285608 1.8882537,-0.739728 2.3457027,-1.230469 0.193805,-0.207908 0.375742,-0.434362 0.482422,-0.732421 0.106681,-0.29806 0.12739,-0.626403 0.09961,-1.041016 C 12.108558,25.868486 10.665258,22.863632 9.3457031,19.775391 8.6869417,18.233648 8.0753042,16.690269 7.8046875,15.009766 7.5372261,13.348856 7.6805034,11.382319 8.7773438,9.75 9.8757717,8.1153184 11.613497,7.2525893 13.212891,6.8359375 14.828252,6.4151259 16.4357,6.3273183 18.021484,6.234375 21.202953,6.0479077 24.023485,5.8113257 25.701172,4.5859375 26.272206,4.168852 26.707141,3.4253709 26.898437,2.2070313 c 0.194456,-1.23845621 0.07881,-2.85305391 -0.332031,-4.4804688 -0.414864,-1.6433559 -1.1969,-3.2097316 -2.003906,-4.4414062 -0.403503,-0.6158374 -0.811888,-1.1477955 -1.193359,-1.5644532 -0.381472,-0.4166576 -0.713345,-0.7188103 -1.076172,-0.890625 -0.576325,-0.2729144 -1.242761,-0.3129372 -2.216797,-0.054687 -1.005199,0.2665124 -2.245946,0.8643945 -3.605469,1.6191407 -2.738153,1.5200995 -5.653079,3.7269103 -9.4589843,3.8828124 -3.7772118,0.1547268 -6.86703529,-2.1050619 -8.7929687,-4.8300781 -1.9341165,-2.7365936 -3.0203631,-6.1337176 -1.6660156,-9.3769526 1.3572801,-3.250259 4.32914828,-4.564294 6.9355469,-5.855469 1.3004487,-0.644225 2.5281234,-1.282254 3.5273437,-1.873047 0.9992203,-0.590793 1.7601982,-1.100524 2.1914063,-1.648438 0.3802703,-0.48319 0.6365551,-1.051784 0.6738281,-1.697265 0.037273,-0.645481 -0.1336701,-1.344898 -0.5136719,-2.132813 -0.7804003,-1.61812 -2.6199814,-3.468251 -5.7929687,-4.740234 -3.17860429,-1.274236 -7.8214624,-1.964685 -12.2226563,-1.789063 z m 0.039063,1 c 4.2667055,-0.170255 8.83361326,0.524577 11.8125,1.71875 2.9845657,1.196449 4.6212455,2.916152 5.2617188,4.244141 0.330435,0.68514 0.4426309,1.215486 0.4179687,1.642578 -0.024662,0.427092 -0.1753873,0.773885 -0.4609375,1.136719 -0.234659,0.298169 -0.9528362,0.837921 -1.9140625,1.40625 -0.9612263,0.568329 -2.1753008,1.199068 -3.4648437,1.837891 -2.57358484,1.274919 -5.8917662,2.722538 -7.4121094,6.363281 -1.5232081,3.647603 -0.2875806,7.428412 1.7714843,10.3417966 2.06724799,2.924963 5.4522284,5.4238434 9.6484375,5.2519531 4.1674088,-0.1707105 7.2690298,-2.5448304 9.9042968,-4.0078124 1.327187,-0.7367948 2.542912,-1.3076464 3.378906,-1.5292969 0.86716,-0.2299132 1.140041,-0.1921423 1.529297,-0.00781 0.119981,0.056816 0.431732,0.2972385 0.767578,0.6640625 0.335846,0.3668239 0.718085,0.8592158 1.095703,1.4355469 0.755237,1.152662 1.492738,2.6418831 1.871094,4.1406249 0.382381,1.51468288 0.475879,3.0375933 0.3125,4.0781251 -0.166537,1.060648 -0.474869,1.489942 -0.798828,1.7265625 C 23.847656,4.7003346 21.1171,5.0495054 17.962891,5.234375 16.380838,5.3270996 14.697252,5.414358 12.958984,5.8671875 11.204748,6.3241768 9.2277364,7.288715 7.9492187,9.1914063 6.6690845,11.096503 6.5203498,13.331439 6.8164062,15.169922 c 0.2929011,1.818887 0.9462303,3.443428 1.6113282,5 1.328163,3.108388 2.7107716,6.153597 2.8359376,8.021484 0.02311,0.3449 -0.0036,0.523221 -0.04492,0.638672 -0.04132,0.115451 -0.10797,0.209352 -0.271484,0.384766 -0.257185,0.275901 -0.914794,0.698045 -1.8652347,0.945312 -1.8865502,0.490807 -4.9137518,0.194675 -6.7109375,-0.708984 -1.81123641,-0.910724 -3.36283803,-2.765101 -5.1308594,-5.03711 -1.7644924,-2.267473 -3.8099166,-5.108849 -7.4140624,-6.486328 -3.593666,-1.373472 -7.191373,-0.843285 -10.167969,-0.603515 -1.480313,0.119241 -2.810517,0.134905 -3.828125,0.07813 -0.508804,-0.02839 -0.93931,-0.07475 -1.263672,-0.132813 -0.324361,-0.05807 -0.552006,-0.147406 -0.582031,-0.166015 -0.131103,-0.08126 -0.437141,-0.428197 -0.652344,-0.996094 -0.215202,-0.567897 -0.365368,-1.351056 -0.330078,-2.308594 0.0704,-1.910176 0.931432,-4.1711028 2.16211,-5.455078 1.229936,-1.283201 3.565975,-2.3546856 6.189453,-3.2109375 2.613637,-0.8530401 5.430733,-1.3780146 7.958984,-3.0878906 2.5966507,-1.75613519 3.7827212,-4.8949699 3.3925781,-7.5800781 -0.38043,-2.6182599 -1.7857003,-4.8085458 -3.5410161,-6.6132818 -1.747326,-1.796523 -3.553496,-3.041216 -5.152343,-4.324218 -1.598847,-1.283002 -2.988906,-2.593607 -4.007813,-4.546875 -1.017925,-1.951388 -1.748236,-4.786975 -1.617187,-7.220703 0.132298,-2.456962 0.895741,-4.345438 2.822265,-5.746094 1.893982,-1.376997 5.920394,-2.509649 10.181641,-2.679688 z"
       id="path6318" />
  </g>
</svg>
